<!--?xml version="1.0" standalone="no"?-->
              <svg id="sw-js-blob-svg" viewBox="0 0 100 100" xmlns="http://www.w3.org/2000/svg" version="1.1">
                    <defs> 
                        <linearGradient id="sw-gradient" x1="0" x2="1" y1="1" y2="0">
                            <stop id="stop1" stop-color="rgba(55, 157.003, 248, 1)" offset="0%"></stop>
                            <stop id="stop2" stop-color="rgba(0, 255, 218.283, 1)" offset="100%"></stop>
                        </linearGradient>
                    </defs>
                <path fill="url(#sw-gradient)" d="M24.9,-30.2C30.8,-24.8,32.9,-15.5,33.5,-6.7C34,2.1,33.1,10.3,29.2,16.6C25.2,22.8,18.3,27.1,10.5,30.7C2.7,34.4,-6.1,37.5,-13.2,35.3C-20.3,33.1,-25.8,25.6,-31.4,17.4C-37.1,9.2,-42.9,0.3,-42.7,-8.6C-42.4,-17.5,-36,-26.3,-27.8,-31.3C-19.7,-36.3,-9.8,-37.3,-0.1,-37.2C9.6,-37,19.1,-35.6,24.9,-30.2Z" width="100%" height="100%" transform="translate(50 50)" style="transition: all 0.3s ease 0s;" stroke-width="0" stroke="url(#sw-gradient)"></path>
              </svg>