<!--?xml version="1.0" standalone="no"?-->
              <svg id="sw-js-blob-svg" viewBox="0 0 100 100" xmlns="http://www.w3.org/2000/svg" version="1.1">
                    <defs> 
                        <linearGradient id="sw-gradient" x1="0" x2="1" y1="1" y2="0">
                            <stop id="stop1" stop-color="rgba(168.773, 55, 248, 1)" offset="0%"></stop>
                            <stop id="stop2" stop-color="rgba(255, 0, 222.891, 1)" offset="100%"></stop>
                        </linearGradient>
                    </defs>
                <path fill="url(#sw-gradient)" d="M23.5,-28.7C30,-22.5,34.5,-14.7,37.1,-5.6C39.8,3.4,40.7,13.7,36.2,20.3C31.7,27,21.8,29.9,13.2,30.6C4.5,31.3,-2.9,29.8,-10.3,27.4C-17.7,25.1,-25,21.9,-29.8,16C-34.5,10.2,-36.7,1.7,-34.7,-5.4C-32.6,-12.5,-26.3,-18.2,-19.8,-24.3C-13.4,-30.5,-6.7,-37,0.9,-38.1C8.5,-39.2,17,-34.8,23.5,-28.7Z" width="100%" height="100%" transform="translate(50 50)" style="transition: all 0.3s ease 0s;" stroke-width="0" stroke="url(#sw-gradient)"></path>
              </svg>