<!--?xml version="1.0" standalone="no"?-->
              <svg id="sw-js-blob-svg" viewBox="0 0 100 100" xmlns="http://www.w3.org/2000/svg" version="1.1">
                    <defs> 
                        <linearGradient id="sw-gradient" x1="0" x2="1" y1="1" y2="0">
                            <stop id="stop1" stop-color="rgba(55, 157.003, 248, 1)" offset="0%"></stop>
                            <stop id="stop2" stop-color="rgba(0, 255, 218.283, 1)" offset="100%"></stop>
                        </linearGradient>
                    </defs>
                <path fill="url(#sw-gradient)" d="M19.5,-22.2C26,-17.8,32.5,-12.3,35.2,-5C38,2.4,37.1,11.6,33,19.5C29,27.5,21.9,34.1,13.3,37.8C4.6,41.5,-5.5,42.4,-13.4,38.7C-21.2,35,-26.7,26.8,-29.8,18.6C-32.9,10.4,-33.5,2.2,-32.8,-6.4C-32,-15,-29.8,-23.9,-24.1,-28.4C-18.4,-32.9,-9.2,-32.8,-1.3,-31.3C6.5,-29.7,13,-26.5,19.5,-22.2Z" width="100%" height="100%" transform="translate(50 50)" style="transition: all 0.3s ease 0s;" stroke-width="0" stroke="url(#sw-gradient)"></path>
              </svg>