<!--?xml version="1.0" standalone="no"?-->
              <svg id="sw-js-blob-svg" viewBox="0 0 100 100" xmlns="http://www.w3.org/2000/svg" version="1.1">
                    <defs> 
                        <linearGradient id="sw-gradient" x1="0" x2="1" y1="1" y2="0">
                            <stop id="stop1" stop-color="rgba(168.773, 55, 248, 1)" offset="0%"></stop>
                            <stop id="stop2" stop-color="rgba(255, 0, 222.891, 1)" offset="100%"></stop>
                        </linearGradient>
                    </defs>
                <path fill="url(#sw-gradient)" d="M23.7,-27.3C29.6,-23.4,32.4,-14.8,33.6,-6.2C34.8,2.4,34.4,11,30.3,17C26.2,22.9,18.5,26.3,10.6,29.2C2.7,32.1,-5.4,34.5,-13.2,33.1C-21.1,31.6,-28.8,26.4,-34.5,18.8C-40.2,11.2,-44,1.4,-42.9,-8.1C-41.8,-17.5,-35.9,-26.6,-27.9,-30.2C-20,-33.8,-10,-31.9,-0.5,-31.2C8.9,-30.6,17.9,-31.3,23.7,-27.3Z" width="100%" height="100%" transform="translate(50 50)" style="transition: all 0.3s ease 0s;" stroke-width="0" stroke="url(#sw-gradient)"></path>
              </svg>