<!--?xml version="1.0" standalone="no"?-->
              <svg id="sw-js-blob-svg" viewBox="0 0 100 100" xmlns="http://www.w3.org/2000/svg" version="1.1">
                    <defs> 
                        <linearGradient id="sw-gradient" x1="0" x2="1" y1="1" y2="0">
                            <stop id="stop1" stop-color="rgba(55, 157.003, 248, 1)" offset="0%"></stop>
                            <stop id="stop2" stop-color="rgba(0, 255, 218.283, 1)" offset="100%"></stop>
                        </linearGradient>
                    </defs>
                <path fill="url(#sw-gradient)" d="M19.6,-23.8C24.8,-19,27.9,-12.2,28.8,-5.4C29.6,1.5,28.1,8.4,25.2,15.7C22.4,23.1,18.2,30.9,11.8,33.9C5.3,37,-3.5,35.4,-10.7,31.7C-17.8,28,-23.3,22.4,-27.7,15.6C-32.1,8.8,-35.4,1,-34.4,-6.3C-33.4,-13.6,-28.1,-20.4,-21.7,-25C-15.2,-29.6,-7.6,-32.1,-0.2,-31.8C7.2,-31.6,14.4,-28.7,19.6,-23.8Z" width="100%" height="100%" transform="translate(50 50)" style="transition: all 0.3s ease 0s;" stroke-width="0" stroke="url(#sw-gradient)"></path>
              </svg>