<!--?xml version="1.0" standalone="no"?-->
              <svg id="sw-js-blob-svg" viewBox="0 0 100 100" xmlns="http://www.w3.org/2000/svg" version="1.1">
                    <defs> 
                        <linearGradient id="sw-gradient" x1="0" x2="1" y1="1" y2="0">
                            <stop id="stop1" stop-color="rgba(55, 157.003, 248, 1)" offset="0%"></stop>
                            <stop id="stop2" stop-color="rgba(0, 255, 218.283, 1)" offset="100%"></stop>
                        </linearGradient>
                    </defs>
                <path fill="url(#sw-gradient)" d="M24.4,-30C31.2,-23.3,36,-15.3,35.9,-7.6C35.8,0.1,30.7,7.4,26.3,15.4C22,23.4,18.4,32.1,11.9,35.7C5.5,39.3,-3.9,37.9,-11.5,34.1C-19.1,30.2,-25,24,-27.9,17C-30.7,10.1,-30.6,2.3,-30.5,-6.6C-30.4,-15.6,-30.3,-25.8,-25.2,-32.7C-20.1,-39.7,-10.1,-43.4,-0.6,-42.7C8.8,-41.9,17.5,-36.6,24.4,-30Z" width="200%" height="200%" transform="translate(50 50)" style="transition: all 0.3s ease 0s;" stroke-width="0" stroke="url(#sw-gradient)"></path>
              </svg>