<!--?xml version="1.0" standalone="no"?-->
              <svg id="sw-js-blob-svg" viewBox="0 0 100 100" xmlns="http://www.w3.org/2000/svg" version="1.1">
                    <defs> 
                        <linearGradient id="sw-gradient" x1="0" x2="1" y1="1" y2="0">
                            <stop id="stop1" stop-color="rgba(168.773, 55, 248, 1)" offset="0%"></stop>
                            <stop id="stop2" stop-color="rgba(255, 0, 222.891, 1)" offset="100%"></stop>
                        </linearGradient>
                    </defs>
                <path fill="url(#sw-gradient)" d="M25.4,-28.8C32,-24.6,36,-15.8,35.8,-7.7C35.5,0.4,31.1,7.9,27.2,16.6C23.2,25.3,19.8,35.1,13.7,37.2C7.5,39.3,-1.3,33.6,-9.3,29.1C-17.2,24.7,-24.3,21.4,-29,15.6C-33.6,9.9,-35.9,1.6,-35.7,-7.5C-35.5,-16.5,-32.8,-26.2,-26.5,-30.4C-20.1,-34.6,-10.1,-33.3,-0.4,-32.9C9.4,-32.4,18.7,-32.9,25.4,-28.8Z" width="100%" height="100%" transform="translate(50 50)" style="transition: all 0.3s ease 0s;" stroke-width="0" stroke="url(#sw-gradient)"></path>
              </svg>