<!--?xml version="1.0" standalone="no"?-->
              <svg id="sw-js-blob-svg" viewBox="0 0 100 100" xmlns="http://www.w3.org/2000/svg" version="1.1">
                    <defs> 
                        <linearGradient id="sw-gradient" x1="0" x2="1" y1="1" y2="0">
                            <stop id="stop1" stop-color="rgba(168.773, 55, 248, 1)" offset="0%"></stop>
                            <stop id="stop2" stop-color="rgba(255, 0, 222.891, 1)" offset="100%"></stop>
                        </linearGradient>
                    </defs>
                <path fill="url(#sw-gradient)" d="M25.4,-33.1C30.7,-25.8,31.4,-15.7,30.9,-7.1C30.5,1.6,29.1,8.8,26.5,17.3C23.9,25.8,20.3,35.7,13,40.5C5.7,45.2,-5.3,44.9,-15,41.3C-24.7,37.7,-33.2,30.9,-37.8,22.2C-42.4,13.4,-43.2,2.9,-40.5,-6.3C-37.9,-15.5,-31.9,-23.2,-24.6,-30.2C-17.3,-37.1,-8.6,-43.4,0.7,-44.3C10,-45.1,20.1,-40.5,25.4,-33.1Z" width="100%" height="100%" transform="translate(50 50)" style="transition: all 0.3s ease 0s;" stroke-width="0" stroke="url(#sw-gradient)"></path>
              </svg>